HIERARCHY
ROOT Hips
{
	OFFSET 0.000000 0.000000 0.000000
	CHANNELS 6 Xposition Yposition Zposition Zrotation Yrotation Xrotation 
	JOINT LHipJoint
	{
		OFFSET 0.000000 0.000000 0.000000
		CHANNELS 3 Zrotation Yrotation Xrotation
		JOINT LeftUpLeg
		{
			OFFSET 1.363060 -1.794630 0.839290
			CHANNELS 3 Zrotation Yrotation Xrotation
			JOINT LeftLeg
			{
				OFFSET 2.448110 -6.726130 0.000000
				CHANNELS 3 Zrotation Yrotation Xrotation
				JOINT LeftFoot
				{
					OFFSET 2.562200 -7.039590 0.000000
					CHANNELS 3 Zrotation Yrotation Xrotation
					JOINT LeftToeBase
					{
						OFFSET 0.157640 -0.433110 2.322550
						CHANNELS 3 Zrotation Yrotation Xrotation
						End Site
						{
							OFFSET 0.000000 0.000000 0.000000
						}
					}
				}
			}
		}
	}
	JOINT RHipJoint
	{
		OFFSET 0.000000 0.000000 0.000000
		CHANNELS 3 Zrotation Yrotation Xrotation
		JOINT RightUpLeg
		{
			OFFSET -1.305520 -1.794630 0.839290
			CHANNELS 3 Zrotation Yrotation Xrotation
			JOINT RightLeg
			{
				OFFSET -2.542530 -6.985550 0.000000
				CHANNELS 3 Zrotation Yrotation Xrotation
				JOINT RightFoot
				{
					OFFSET -2.568260 -7.056230 0.000000
					CHANNELS 3 Zrotation Yrotation Xrotation
					JOINT RightToeBase
					{
						OFFSET -0.164730 -0.452590 2.363150
						CHANNELS 3 Zrotation Yrotation Xrotation
						End Site
						{
							OFFSET 0.000000 0.000000 0.000000
						}
					}
				}
			}
		}
	}
	JOINT LowerBack
	{
		OFFSET 0.000000 0.000000 0.000000
		CHANNELS 3 Zrotation Yrotation Xrotation
		JOINT Spine
		{
			OFFSET 0.028270 2.035590 -0.193380
			CHANNELS 3 Zrotation Yrotation Xrotation
			JOINT Spine1
			{
				OFFSET 0.056720 2.048850 -0.042750
				CHANNELS 3 Zrotation Yrotation Xrotation
				JOINT Neck
				{
					OFFSET 0.000000 0.000000 0.000000
					CHANNELS 3 Zrotation Yrotation Xrotation
					JOINT Neck1
					{
						OFFSET -0.054170 1.746240 0.172020
						CHANNELS 3 Zrotation Yrotation Xrotation
						JOINT Head
						{
							OFFSET 0.104070 1.761360 -0.123970
							CHANNELS 3 Zrotation Yrotation Xrotation
							End Site
							{
								OFFSET 0.000000 0.000000 0.000000
							}
						}
					}
				}
				JOINT LeftShoulder
				{
					OFFSET 0.000000 0.000000 0.000000
					CHANNELS 3 Zrotation Yrotation Xrotation
					JOINT LeftArm
					{
						OFFSET 3.362410 1.200890 -0.311210
						CHANNELS 3 Zrotation Yrotation Xrotation
						JOINT LeftForeArm
						{
							OFFSET 4.983000 -0.000000 -0.000000
							CHANNELS 3 Zrotation Yrotation Xrotation
							JOINT LeftHand
							{
								OFFSET 3.483560 -0.000000 -0.000000
								CHANNELS 3 Zrotation Yrotation Xrotation
								JOINT LeftFingerBase
								{
									OFFSET 0.000000 0.000000 0.000000
									CHANNELS 3 Zrotation Yrotation Xrotation
									JOINT LeftHandIndex1
									{
										OFFSET 0.715260 -0.000000 -0.000000
										CHANNELS 3 Zrotation Yrotation Xrotation
										End Site
										{
											OFFSET 0.000000 0.000000 0.000000
										}
									}
								}
								JOINT LThumb
								{
									OFFSET 0.000000 0.000000 0.000000
									CHANNELS 3 Zrotation Yrotation Xrotation
									End Site
									{
										OFFSET 0.000000 0.000000 0.000000
									}
								}
							}
						}
					}
				}
				JOINT RightShoulder
				{
					OFFSET 0.000000 0.000000 0.000000
					CHANNELS 3 Zrotation Yrotation Xrotation
					JOINT RightArm
					{
						OFFSET -3.136600 1.374050 -0.404650
						CHANNELS 3 Zrotation Yrotation Xrotation
						JOINT RightForeArm
						{
							OFFSET -5.241900 -0.000000 -0.000000
							CHANNELS 3 Zrotation Yrotation Xrotation
							JOINT RightHand
							{
								OFFSET -3.444170 -0.000000 -0.000000
								CHANNELS 3 Zrotation Yrotation Xrotation
								JOINT RightFingerBase
								{
									OFFSET 0.000000 0.000000 0.000000
									CHANNELS 3 Zrotation Yrotation Xrotation
									JOINT RightHandIndex1
									{
										OFFSET -0.622530 -0.000000 -0.000000
										CHANNELS 3 Zrotation Yrotation Xrotation
										End Site
										{
											OFFSET 0.000000 0.000000 0.000000
										}
									}
								}
								JOINT RThumb
								{
									OFFSET 0.000000 0.000000 0.000000
									CHANNELS 3 Zrotation Yrotation Xrotation
									End Site
									{
										OFFSET 0.000000 0.000000 0.000000
									}
								}
							}
						}
					}
				}
			}
		}
	}
}
MOTION
Frames: 8
Frame Time: 0.008333
6.866710 16.751195 4.384966 -175.035248 -85.062856 -162.032720 -9.562892 -1.376969 0.315419 -8.121702 2.945183 -45.129006 -2.368665 0.121553 16.204529 1.081092 6.441258 2.456104 1.629100 -0.000000 -36.079200 10.388430 -0.947299 -2.640951 2.185392 -5.976854 -20.406911 1.413512 -2.556477 36.903701 -0.743277 -2.272180 -5.238921 -0.202100 0.000001 -83.220800 -8.896724 0.287507 3.798326 -2.992449 0.657605 -2.538874 -7.587894 0.502659 -0.483571 9.747333 3.345868 -1.752765 -4.353136 -0.361383 1.233648 0.000000 0.000000 0.000000 -4.070384 1.787639 3.484250 -61.748395 -2.037524 14.299983 -3.944458 -28.060619 -0.018109 -5.798995 12.905507 -0.644943 -0.092230 0.020247 -0.000000 0.000000 0.000000 0.000000 0.000000 0.000000 0.000000 19.301698 5.873059 1.150275 72.105981 27.168214 10.100695 2.508544 25.931366 0.011736 3.266363 6.085773 0.178826 0.007925 -0.177404 0.000000 0.000000 0.000000 0.000000 0.000000 0.000000 0.000000 
6.788240 16.771632 4.427008 -172.834553 -84.294286 -163.960956 -9.568843 -1.361341 0.233236 -8.114266 3.421610 -45.140744 -2.377132 0.128552 16.258825 1.135780 6.674528 2.137124 1.636601 -0.000000 -35.956600 10.451205 -0.873961 -2.540401 2.086642 -5.402085 -21.907906 1.171285 -2.738882 39.135002 -0.712192 -2.239557 -3.536059 -0.277201 -0.000000 -83.439200 -9.025949 0.350367 3.748277 -3.028317 0.721098 -2.564080 -7.612211 0.559768 -0.531526 9.524488 3.531647 -1.701419 -4.360926 -0.362133 1.241942 0.000000 0.000000 0.000000 -4.294067 1.484459 3.567841 -61.081280 -2.773619 14.615538 -4.052371 -26.787150 -0.018931 -6.054383 13.101460 -0.683436 -0.097143 0.025122 -0.000000 0.000000 0.000000 0.000000 0.000000 0.000000 0.000000 19.116292 6.056916 1.151864 72.830359 26.898689 10.507364 2.514388 25.537852 0.012376 3.759366 5.742575 0.194612 0.002924 -0.172717 0.000000 0.000000 0.000000 0.000000 0.000000 0.000000 0.000000 
6.712514 16.791571 4.469151 -170.760994 -83.544916 -165.777666 -9.575752 -1.354000 0.142587 -8.078748 3.934845 -45.156922 -2.385584 0.138952 16.320011 1.181591 6.856791 1.847298 1.634600 0.000000 -35.845200 10.508059 -0.792857 -2.442436 2.049192 -4.831320 -23.369487 0.932587 -2.898000 41.273250 -0.704332 -2.274538 -1.885818 -0.345400 -0.000000 -83.194099 -9.099136 0.413319 3.715106 -3.053005 0.782519 -2.584671 -7.639999 0.615041 -0.574841 9.297749 3.727477 -1.650780 -4.373243 -0.363069 1.249680 0.000000 0.000000 0.000000 -4.529801 1.197187 3.652637 -60.385229 -3.584631 14.941198 -4.159581 -25.492754 -0.019749 -6.262658 13.285182 -0.716427 -0.102440 0.030766 -0.000000 0.000000 0.000000 0.000000 0.000000 0.000000 0.000000 18.946054 6.245778 1.158913 73.480090 26.653070 10.972919 2.526896 25.174784 0.013095 4.321217 5.361653 0.209296 -0.002533 -0.167258 0.000000 0.000000 0.000000 0.000000 0.000000 0.000000 0.000000 
6.639188 16.810954 4.510709 -168.918871 -82.843262 -167.380236 -9.582158 -1.355125 0.047621 -8.028245 4.448498 -45.166733 -2.394369 0.150257 16.393270 1.219207 6.993708 1.564716 1.622500 -0.000000 -35.744000 10.559758 -0.706081 -2.353744 2.055697 -4.305916 -24.781040 0.706387 -3.037665 43.304621 -0.719461 -2.386262 -0.353599 -0.412000 -0.000001 -82.536100 -9.135194 0.469182 3.702141 -3.070159 0.835507 -2.599629 -7.670687 0.662226 -0.614463 9.075914 3.923800 -1.599134 -4.389204 -0.364156 1.257299 0.000000 0.000000 0.000000 -4.759816 0.902561 3.738493 -59.669542 -4.453639 15.257785 -4.264600 -24.174205 -0.020571 -6.405113 13.460228 -0.741818 -0.108022 0.037131 -0.000000 0.000000 0.000000 0.000000 0.000000 0.000000 0.000000 18.797603 6.424823 1.171268 74.061736 26.436696 11.497467 2.544931 24.827817 0.013840 4.932270 4.962661 0.221580 -0.008296 -0.161173 0.000000 0.000000 0.000000 0.000000 0.000000 0.000000 0.000000 
6.568182 16.829914 4.551147 -167.318965 -82.207868 -168.765257 -9.588013 -1.363186 -0.049227 -7.969367 4.936382 -45.152531 -2.403181 0.160822 16.475383 1.249486 7.090195 1.273182 1.599600 -0.000001 -35.657600 10.605126 -0.614326 -2.282460 2.095924 -3.857230 -26.123672 0.499230 -3.160816 45.211988 -0.756628 -2.588514 1.002294 -0.484500 -0.000000 -81.545800 -9.148355 0.514399 3.715993 -3.082562 0.876971 -2.608087 -7.703735 0.698264 -0.653709 8.866286 4.118698 -1.542779 -4.407787 -0.365362 1.265789 0.000000 0.000000 0.000000 -4.969067 0.578332 3.825816 -58.946882 -5.358876 15.518851 -4.365415 -22.835751 -0.021427 -6.464890 13.642694 -0.758108 -0.113731 0.044205 -0.000000 0.000000 0.000000 0.000000 0.000000 0.000000 0.000000 18.674071 6.589933 1.188907 74.582500 26.243643 12.050245 2.566187 24.496710 0.014562 5.577075 4.555321 0.230562 -0.014310 -0.154638 0.000000 0.000000 0.000000 0.000000 0.000000 0.000000 0.000000 
6.499211 16.848491 4.590132 -165.939941 -81.651935 -169.953498 -9.593348 -1.375112 -0.142010 -7.907447 5.374558 -45.112744 -2.411717 0.169508 16.565940 1.273646 7.151945 0.961347 1.566100 0.000000 -35.573600 10.643274 -0.518649 -2.232595 2.164368 -3.509696 -27.396193 0.315139 -3.270461 46.986483 -0.813823 -2.892021 2.140770 -0.570199 -0.000000 -80.338900 -9.148339 0.546653 3.753741 -3.092031 0.905038 -2.609421 -7.738326 0.721501 -0.688763 8.673098 4.301714 -1.484687 -4.427582 -0.366568 1.274458 0.000000 0.000000 0.000000 -5.147812 0.234476 3.912527 -58.224312 -6.322747 15.738947 -4.461616 -21.452261 -0.022321 -6.425487 13.823659 -0.762400 -0.119468 0.051954 -0.000000 0.000000 0.000000 0.000000 0.000000 0.000000 0.000000 18.574714 6.728493 1.209313 75.051346 26.084129 12.630881 2.590392 24.159591 0.015217 6.235559 4.162271 0.236045 -0.020354 -0.147815 0.000000 0.000000 0.000000 0.000000 0.000000 0.000000 0.000000 
6.432120 16.866824 4.627445 -164.743422 -81.182010 -170.985161 -9.598395 -1.388177 -0.228335 -7.844697 5.750784 -45.037436 -2.419562 0.175167 16.654309 1.292491 7.183880 0.628338 1.523100 0.000000 -35.488301 10.673624 -0.419826 -2.208291 2.257600 -3.277115 -28.589244 0.156378 -3.369001 48.615748 -0.888628 -3.303694 3.032702 -0.674900 -0.000000 -79.018599 -9.141207 0.565306 3.816999 -3.099825 0.919298 -2.602075 -7.774406 0.731833 -0.715603 8.500242 4.463457 -1.428988 -4.447779 -0.367669 1.282167 0.000000 0.000000 0.000000 -5.291390 -0.109082 3.996733 -57.506230 -7.374907 15.919114 -4.552400 -20.008171 -0.023279 -6.272173 14.001528 -0.752395 -0.125105 0.060378 -0.000000 0.000000 0.000000 0.000000 0.000000 0.000000 0.000000 18.500880 6.830576 1.229170 75.476319 25.967612 13.225368 2.616011 23.805537 0.015758 6.882432 3.803970 0.238527 -0.026212 -0.140940 0.000000 0.000000 0.000000 0.000000 0.000000 0.000000 0.000000 
6.366699 16.885116 4.662927 -163.700130 -80.800933 -171.890987 -9.603585 -1.400107 -0.306254 -7.782694 6.056667 -44.914277 -2.425972 0.175925 16.720422 1.307058 7.194937 0.285426 1.474300 -0.000000 -35.409000 10.696175 -0.319243 -2.211293 2.371650 -3.164990 -29.696089 0.023818 -3.458643 50.088056 -0.978230 -3.821739 3.666992 -0.799900 0.000001 -77.675600 -9.132253 0.571553 3.904834 -3.107132 0.921083 -2.588231 -7.811344 0.730273 -0.742319 8.350120 4.610713 -1.366368 -4.467250 -0.368712 1.291677 0.000000 0.000000 0.000000 -5.393489 -0.493399 4.078575 -56.803697 -8.457682 15.978661 -4.633085 -18.533723 -0.024337 -5.989492 14.193418 -0.726594 -0.130293 0.069377 -0.000000 0.000000 0.000000 0.000000 0.000000 0.000000 0.000000 18.449882 6.903613 1.250754 75.863178 25.875445 13.785857 2.640558 23.438970 0.016170 7.502060 3.478217 0.238209 -0.031818 -0.134217 0.000000 0.000000 0.000000 0.000000 0.000000 0.000000 0.000000 
